<svg width="31" height="38" viewBox="0 0 31 38" fill="none" xmlns="http://www.w3.org/2000/svg">
  <path d="M0 2.0479C0 0.916877 0.92987 0 2.07692 0H28.9231C30.0701 0 31 0.916878 31 2.0479V29.5976C31 30.3909 30.5354 31.1128 29.8075 31.4506L16.5672 37.5947C16.0134 37.8517 15.3727 37.8547 14.8164 37.6029L1.21052 31.4451C0.472839 31.1112 0 30.3842 0 29.5839V2.0479Z" fill="white" />
  <path d="M16.2015 34.2482C15.7491 34.4176 15.2507 34.4176 14.7983 34.2482L8.61529 31.9321H22.3845L16.2015 34.2482Z" fill="#121212" />
  <path d="M5.13225 25.0246H3.17743C3.16168 25.0246 3.15381 25.015 3.15381 24.9956L3.15971 20.9103C3.15971 20.8949 3.16759 20.8871 3.18334 20.8871H5.12635C5.1421 20.8871 5.14997 20.8968 5.14997 20.9161V21.5811C5.14997 21.5965 5.1421 21.6043 5.12635 21.6043H3.88613V22.5334H5.12635C5.1421 22.5334 5.14997 22.5412 5.14997 22.5566L5.15588 23.2303C5.15588 23.2457 5.148 23.2535 5.13225 23.2535H3.88613V24.2929H5.13225C5.148 24.2929 5.15588 24.3026 5.15588 24.322V25.0014C5.15588 25.0169 5.148 25.0246 5.13225 25.0246Z" fill="#121212" />
  <path d="M6.80655 25.0827C6.58803 25.0827 6.38822 25.0285 6.20711 24.9201C6.02797 24.8117 5.88524 24.6665 5.77894 24.4846C5.6746 24.3007 5.62243 24.0965 5.62243 23.8719L5.62834 22.0166C5.62834 21.7959 5.67952 21.5965 5.78189 21.4185C5.88426 21.2384 6.02501 21.0942 6.20416 20.9858C6.38527 20.8755 6.58606 20.8203 6.80655 20.8203C7.03097 20.8203 7.23078 20.8736 7.40599 20.98C7.58316 21.0865 7.72392 21.2307 7.82825 21.4127C7.93456 21.5927 7.98771 21.794 7.98771 22.0166V22.2895C7.98771 22.305 7.97983 22.3127 7.96408 22.3127H7.28492C7.26917 22.3127 7.26129 22.305 7.26129 22.2895V22.0166C7.26129 21.885 7.21798 21.7717 7.13137 21.6769C7.04475 21.582 6.93647 21.5346 6.80655 21.5346C6.66284 21.5346 6.5526 21.583 6.47582 21.6798C6.39905 21.7766 6.36066 21.8888 6.36066 22.0166V23.8719C6.36066 24.0171 6.40397 24.1362 6.49059 24.2291C6.57721 24.3201 6.68253 24.3655 6.80655 24.3655C6.93647 24.3655 7.04475 24.3152 7.13137 24.2146C7.21798 24.112 7.26129 23.9978 7.26129 23.8719V23.5961C7.26129 23.5806 7.26917 23.5729 7.28492 23.5729H7.96999C7.98574 23.5729 7.99361 23.5806 7.99361 23.5961V23.8719C7.99361 24.0945 7.94046 24.2978 7.83416 24.4817C7.72588 24.6636 7.58316 24.8098 7.40599 24.9201C7.22881 25.0285 7.029 25.0827 6.80655 25.0827Z" fill="#121212" />
  <path d="M9.55275 25.0827C9.33817 25.0827 9.14032 25.0285 8.95921 24.9201C8.78007 24.8117 8.63538 24.6675 8.52514 24.4875C8.41686 24.3055 8.36273 24.1062 8.36273 23.8894L8.36863 22.005C8.36863 21.7843 8.42277 21.5859 8.53104 21.4097C8.63735 21.2317 8.78105 21.0894 8.96216 20.9829C9.14328 20.8745 9.34014 20.8203 9.55275 20.8203C9.77323 20.8203 9.97107 20.8736 10.1463 20.98C10.3235 21.0865 10.4652 21.2297 10.5715 21.4097C10.6798 21.5878 10.7339 21.7862 10.7339 22.005L10.7398 23.8894C10.7398 24.1062 10.6867 24.3046 10.5804 24.4846C10.4721 24.6665 10.3284 24.8117 10.1492 24.9201C9.97009 25.0285 9.77126 25.0827 9.55275 25.0827ZM9.55275 24.3655C9.6748 24.3655 9.7811 24.3171 9.87166 24.2204C9.96221 24.1216 10.0075 24.0113 10.0075 23.8894L10.0016 22.005C10.0016 21.8733 9.95926 21.762 9.87461 21.6711C9.78996 21.5801 9.68267 21.5346 9.55275 21.5346C9.42872 21.5346 9.32242 21.5791 9.23383 21.6682C9.14524 21.7572 9.10095 21.8695 9.10095 22.005V23.8894C9.10095 24.0191 9.14524 24.1313 9.23383 24.2262C9.32242 24.3191 9.42872 24.3655 9.55275 24.3655Z" fill="#121212" />
  <path d="M11.9062 25.0246H11.2211C11.2054 25.0246 11.1975 25.015 11.1975 24.9956L11.2093 20.9103C11.2093 20.8949 11.2172 20.8871 11.2329 20.8871H11.9712C11.9869 20.8871 12.0007 20.8949 12.0125 20.9103L12.5647 21.6943L13.1139 20.9103C13.1258 20.8949 13.1405 20.8871 13.1582 20.8871H13.8994C13.9171 20.8871 13.926 20.8949 13.926 20.9103L13.9378 24.9956C13.9378 25.015 13.9299 25.0246 13.9142 25.0246H13.2291C13.2134 25.0246 13.2055 25.015 13.2055 24.9956L13.1996 21.9614L12.5647 22.8673L11.9357 21.9614L11.9298 24.9956C11.9298 25.015 11.922 25.0246 11.9062 25.0246Z" fill="#121212" />
  <path d="M15.1544 25.0246H14.4693C14.4536 25.0246 14.4457 25.015 14.4457 24.9956L14.4575 20.9103C14.4575 20.8949 14.4654 20.8871 14.4811 20.8871H15.2194C15.2351 20.8871 15.2489 20.8949 15.2607 20.9103L15.8129 21.6943L16.3621 20.9103C16.3739 20.8949 16.3887 20.8871 16.4064 20.8871H17.1476C17.1653 20.8871 17.1742 20.8949 17.1742 20.9103L17.186 24.9956C17.186 25.015 17.1781 25.0246 17.1624 25.0246H16.4773C16.4615 25.0246 16.4537 25.015 16.4537 24.9956L16.4478 21.9614L15.8129 22.8673L15.1839 21.9614L15.178 24.9956C15.178 25.015 15.1701 25.0246 15.1544 25.0246Z" fill="#121212" />
  <path d="M19.6723 25.0246H17.7175C17.7018 25.0246 17.6939 25.015 17.6939 24.9956L17.6998 20.9103C17.6998 20.8949 17.7077 20.8871 17.7234 20.8871H19.6664C19.6822 20.8871 19.6901 20.8968 19.6901 20.9161V21.5811C19.6901 21.5965 19.6822 21.6043 19.6664 21.6043H18.4262V22.5334H19.6664C19.6822 22.5334 19.6901 22.5412 19.6901 22.5566L19.696 23.2303C19.696 23.2457 19.6881 23.2535 19.6723 23.2535H18.4262V24.2929H19.6723C19.6881 24.2929 19.696 24.3026 19.696 24.322V25.0014C19.696 25.0169 19.6881 25.0246 19.6723 25.0246Z" fill="#121212" />
  <path d="M20.9421 25.0246H20.257C20.2413 25.0246 20.2334 25.015 20.2334 24.9956L20.2452 20.9103C20.2452 20.8949 20.2531 20.8871 20.2688 20.8871H21.4913C21.7098 20.8871 21.9106 20.9394 22.0937 21.0439C22.2768 21.1484 22.4225 21.2888 22.5307 21.4649C22.641 21.6411 22.6961 21.8404 22.6961 22.063C22.6961 22.2082 22.6735 22.3398 22.6282 22.4579C22.5829 22.576 22.5298 22.6757 22.4687 22.757C22.4097 22.8383 22.3555 22.8983 22.3063 22.937C22.5248 23.1751 22.6341 23.4548 22.6341 23.7761L22.64 24.9956C22.64 25.015 22.6302 25.0246 22.6105 25.0246H21.9254C21.9097 25.0246 21.9018 25.0188 21.9018 25.0072V23.7761C21.9018 23.6329 21.8506 23.509 21.7482 23.4045C21.6459 23.2999 21.5199 23.2477 21.3703 23.2477H20.9716L20.9657 24.9956C20.9657 25.015 20.9578 25.0246 20.9421 25.0246ZM21.4913 21.5985H20.9716V22.5334H21.4913C21.6153 22.5334 21.7256 22.4879 21.822 22.3969C21.9205 22.306 21.9697 22.1947 21.9697 22.063C21.9697 21.9372 21.9224 21.8288 21.828 21.7378C21.7335 21.6449 21.6213 21.5985 21.4913 21.5985Z" fill="#121212" />
  <path d="M24.1401 25.0827C23.9216 25.0827 23.7217 25.0285 23.5406 24.9201C23.3615 24.8117 23.2188 24.6665 23.1125 24.4846C23.0081 24.3007 22.956 24.0965 22.956 23.8719L22.9619 22.0166C22.9619 21.7959 23.0131 21.5965 23.1154 21.4185C23.2178 21.2384 23.3585 21.0942 23.5377 20.9858C23.7188 20.8755 23.9196 20.8203 24.1401 20.8203C24.3645 20.8203 24.5643 20.8736 24.7395 20.98C24.9167 21.0865 25.0574 21.2307 25.1618 21.4127C25.2681 21.5927 25.3212 21.794 25.3212 22.0166V22.2895C25.3212 22.305 25.3134 22.3127 25.2976 22.3127H24.6184C24.6027 22.3127 24.5948 22.305 24.5948 22.2895V22.0166C24.5948 21.885 24.5515 21.7717 24.4649 21.6769C24.3783 21.582 24.27 21.5346 24.1401 21.5346C23.9964 21.5346 23.8861 21.583 23.8094 21.6798C23.7326 21.7766 23.6942 21.8888 23.6942 22.0166V23.8719C23.6942 24.0171 23.7375 24.1362 23.8241 24.2291C23.9107 24.3201 24.0161 24.3655 24.1401 24.3655C24.27 24.3655 24.3783 24.3152 24.4649 24.2146C24.5515 24.112 24.5948 23.9978 24.5948 23.8719V23.5961C24.5948 23.5806 24.6027 23.5729 24.6184 23.5729H25.3035C25.3193 23.5729 25.3271 23.5806 25.3271 23.5961V23.8719C25.3271 24.0945 25.274 24.2978 25.1677 24.4817C25.0594 24.6636 24.9167 24.8098 24.7395 24.9201C24.5623 25.0285 24.3625 25.0827 24.1401 25.0827Z" fill="#121212" />
  <path d="M27.7456 25.0246H25.7907C25.775 25.0246 25.7671 25.015 25.7671 24.9956L25.773 20.9103C25.773 20.8949 25.7809 20.8871 25.7967 20.8871H27.7397C27.7554 20.8871 27.7633 20.8968 27.7633 20.9161V21.5811C27.7633 21.5965 27.7554 21.6043 27.7397 21.6043H26.4994V22.5334H27.7397C27.7554 22.5334 27.7633 22.5412 27.7633 22.5566L27.7692 23.2303C27.7692 23.2457 27.7613 23.2535 27.7456 23.2535H26.4994V24.2929H27.7456C27.7613 24.2929 27.7692 24.3026 27.7692 24.322V25.0014C27.7692 25.0169 27.7613 25.0246 27.7456 25.0246Z" fill="#121212" />
  <path d="M8.10878 19.5754H5.43271C5.37119 19.5754 5.34043 19.5376 5.34043 19.4619L5.38657 3.50388C5.38657 3.44339 5.41733 3.41315 5.47885 3.41315H8.36254C8.42406 3.41315 8.47789 3.44339 8.52403 3.50388L10.681 6.5662L12.8265 3.50388C12.8726 3.44339 12.9303 3.41315 12.9995 3.41315H15.8947C15.964 3.41315 15.9986 3.44339 15.9986 3.50388L16.0447 19.4619C16.0447 19.5376 16.0139 19.5754 15.9524 19.5754H13.2764C13.2148 19.5754 13.1841 19.5376 13.1841 19.4619L13.161 7.60965L10.681 11.1483L8.22412 7.60965L8.20105 19.4619C8.20105 19.5376 8.1703 19.5754 8.10878 19.5754Z" fill="#121212" />
  <path d="M22.954 19.5754H20.2434C20.1895 19.5754 20.1626 19.5451 20.1626 19.4846L20.1857 12.8836L17.0252 3.50388C17.0098 3.44339 17.0328 3.41315 17.0944 3.41315H19.7243C19.8012 3.41315 19.8473 3.44339 19.8627 3.50388L21.6045 9.75327L23.3808 3.50388C23.3962 3.44339 23.4346 3.41315 23.4962 3.41315H26.1492C26.2107 3.41315 26.2337 3.44339 26.2184 3.50388L23.0232 12.7929L23.0463 19.4846C23.0463 19.5451 23.0155 19.5754 22.954 19.5754Z" fill="#121212" />
</svg>