<svg width="24" height="24" viewBox="0 0 24 24" fill="none" xmlns="http://www.w3.org/2000/svg">
  <rect width="24" height="24" rx="12" fill="#3F3F3F" />
  <path d="M12 12C11.0375 12 10.2135 11.6573 9.52813 10.9719C8.84271 10.2865 8.5 9.4625 8.5 8.5C8.5 7.5375 8.84271 6.71354 9.52813 6.02813C10.2135 5.34271 11.0375 5 12 5C12.9625 5 13.7865 5.34271 14.4719 6.02813C15.1573 6.71354 15.5 7.5375 15.5 8.5C15.5 9.4625 15.1573 10.2865 14.4719 10.9719C13.7865 11.6573 12.9625 12 12 12ZM5 19V16.55C5 16.0542 5.1276 15.5984 5.38281 15.1828C5.63802 14.7672 5.97708 14.45 6.4 14.2312C7.30417 13.7792 8.22292 13.4401 9.15625 13.2141C10.0896 12.988 11.0375 12.875 12 12.875C12.9625 12.875 13.9104 12.988 14.8438 13.2141C15.7771 13.4401 16.6958 13.7792 17.6 14.2312C18.0229 14.45 18.362 14.7672 18.6172 15.1828C18.8724 15.5984 19 16.0542 19 16.55V19H5ZM6.75 17.25H17.25V16.55C17.25 16.3896 17.2099 16.2437 17.1297 16.1125C17.0495 15.9812 16.9438 15.8792 16.8125 15.8063C16.025 15.4125 15.2302 15.1172 14.4281 14.9203C13.626 14.7234 12.8167 14.625 12 14.625C11.1833 14.625 10.374 14.7234 9.57188 14.9203C8.76979 15.1172 7.975 15.4125 7.1875 15.8063C7.05625 15.8792 6.95052 15.9812 6.87031 16.1125C6.7901 16.2437 6.75 16.3896 6.75 16.55V17.25ZM12 10.25C12.4812 10.25 12.8932 10.0786 13.2359 9.73594C13.5786 9.39323 13.75 8.98125 13.75 8.5C13.75 8.01875 13.5786 7.60677 13.2359 7.26406C12.8932 6.92135 12.4812 6.75 12 6.75C11.5188 6.75 11.1068 6.92135 10.7641 7.26406C10.4214 7.60677 10.25 8.01875 10.25 8.5C10.25 8.98125 10.4214 9.39323 10.7641 9.73594C11.1068 10.0786 11.5188 10.25 12 10.25Z" fill="#7A7A7A" />
</svg>