<svg width="403" height="536" viewBox="0 0 403 536" fill="none" xmlns="http://www.w3.org/2000/svg">
<path fill-rule="evenodd" clip-rule="evenodd" d="M27 0C12.0883 0 0 12.0883 0 27V421.473C0 431.748 5.83214 441.132 15.0451 445.682L191.913 533.022C199.534 536.785 208.481 536.74 216.064 532.901L388.196 445.748C397.277 441.15 403 431.837 403 421.659V27C403 12.0883 390.912 0 376 0H27ZM200.79 492.73C201.247 492.904 201.753 492.904 202.21 492.73L291 459H112L200.79 492.73ZM91.875 381H71.1875C71.0208 381 70.9375 380.896 70.9375 380.688L71 336.719C71 336.552 71.0833 336.469 71.25 336.469H91.8125C91.9792 336.469 92.0625 336.573 92.0625 336.781V343.938C92.0625 344.104 91.9792 344.188 91.8125 344.188H78.6875V354.188H91.8125C91.9792 354.188 92.0625 354.271 92.0625 354.438L92.125 361.688C92.125 361.854 92.0417 361.938 91.875 361.938H78.6875V373.125H91.875C92.0417 373.125 92.125 373.229 92.125 373.438V380.75C92.125 380.917 92.0417 381 91.875 381ZM109.594 381.625C107.281 381.625 105.167 381.042 103.25 379.875C101.354 378.708 99.8438 377.146 98.7188 375.188C97.6146 373.208 97.0625 371.01 97.0625 368.594L97.125 348.625C97.125 346.25 97.6667 344.104 98.75 342.188C99.8333 340.25 101.323 338.698 103.219 337.531C105.135 336.344 107.26 335.75 109.594 335.75C111.969 335.75 114.083 336.323 115.938 337.469C117.812 338.615 119.302 340.167 120.406 342.125C121.531 344.062 122.094 346.229 122.094 348.625V351.562C122.094 351.729 122.01 351.812 121.844 351.812H114.656C114.49 351.812 114.406 351.729 114.406 351.562V348.625C114.406 347.208 113.948 345.99 113.031 344.969C112.115 343.948 110.969 343.438 109.594 343.438C108.073 343.438 106.906 343.958 106.094 345C105.281 346.042 104.875 347.25 104.875 348.625V368.594C104.875 370.156 105.333 371.438 106.25 372.438C107.167 373.417 108.281 373.906 109.594 373.906C110.969 373.906 112.115 373.365 113.031 372.281C113.948 371.177 114.406 369.948 114.406 368.594V365.625C114.406 365.458 114.49 365.375 114.656 365.375H121.906C122.073 365.375 122.156 365.458 122.156 365.625V368.594C122.156 370.99 121.594 373.177 120.469 375.156C119.323 377.115 117.812 378.688 115.938 379.875C114.062 381.042 111.948 381.625 109.594 381.625ZM138.656 381.625C136.385 381.625 134.292 381.042 132.375 379.875C130.479 378.708 128.948 377.156 127.781 375.219C126.635 373.26 126.062 371.115 126.062 368.781L126.125 348.5C126.125 346.125 126.698 343.99 127.844 342.094C128.969 340.177 130.49 338.646 132.406 337.5C134.323 336.333 136.406 335.75 138.656 335.75C140.99 335.75 143.083 336.323 144.938 337.469C146.812 338.615 148.312 340.156 149.438 342.094C150.583 344.01 151.156 346.146 151.156 348.5L151.219 368.781C151.219 371.115 150.656 373.25 149.531 375.188C148.385 377.146 146.865 378.708 144.969 379.875C143.073 381.042 140.969 381.625 138.656 381.625ZM138.656 373.906C139.948 373.906 141.073 373.385 142.031 372.344C142.99 371.281 143.469 370.094 143.469 368.781L143.406 348.5C143.406 347.083 142.958 345.885 142.062 344.906C141.167 343.927 140.031 343.438 138.656 343.438C137.344 343.438 136.219 343.917 135.281 344.875C134.344 345.833 133.875 347.042 133.875 348.5V368.781C133.875 370.177 134.344 371.385 135.281 372.406C136.219 373.406 137.344 373.906 138.656 373.906ZM163.562 381H156.312C156.146 381 156.062 380.896 156.062 380.688L156.188 336.719C156.188 336.552 156.271 336.469 156.438 336.469H164.25C164.417 336.469 164.562 336.552 164.688 336.719L170.531 345.156L176.344 336.719C176.469 336.552 176.625 336.469 176.812 336.469H184.656C184.844 336.469 184.938 336.552 184.938 336.719L185.062 380.688C185.062 380.896 184.979 381 184.812 381H177.562C177.396 381 177.312 380.896 177.312 380.688L177.25 348.031L170.531 357.781L163.875 348.031L163.812 380.688C163.812 380.896 163.729 381 163.562 381ZM197.938 381H190.688C190.521 381 190.438 380.896 190.438 380.688L190.562 336.719C190.562 336.552 190.646 336.469 190.812 336.469H198.625C198.792 336.469 198.938 336.552 199.062 336.719L204.906 345.156L210.719 336.719C210.844 336.552 211 336.469 211.188 336.469H219.031C219.219 336.469 219.312 336.552 219.312 336.719L219.438 380.688C219.438 380.896 219.354 381 219.188 381H211.938C211.771 381 211.688 380.896 211.688 380.688L211.625 348.031L204.906 357.781L198.25 348.031L198.188 380.688C198.188 380.896 198.104 381 197.938 381ZM245.75 381H225.062C224.896 381 224.812 380.896 224.812 380.688L224.875 336.719C224.875 336.552 224.958 336.469 225.125 336.469H245.688C245.854 336.469 245.938 336.573 245.938 336.781V343.938C245.938 344.104 245.854 344.188 245.688 344.188H232.562V354.188H245.688C245.854 354.188 245.938 354.271 245.938 354.438L246 361.688C246 361.854 245.917 361.938 245.75 361.938H232.562V373.125H245.75C245.917 373.125 246 373.229 246 373.438V380.75C246 380.917 245.917 381 245.75 381ZM259.188 381H251.938C251.771 381 251.688 380.896 251.688 380.688L251.812 336.719C251.812 336.552 251.896 336.469 252.062 336.469H265C267.312 336.469 269.438 337.031 271.375 338.156C273.312 339.281 274.854 340.792 276 342.688C277.167 344.583 277.75 346.729 277.75 349.125C277.75 350.688 277.51 352.104 277.031 353.375C276.552 354.646 275.99 355.719 275.344 356.594C274.719 357.469 274.146 358.115 273.625 358.531C275.938 361.094 277.094 364.104 277.094 367.562L277.156 380.688C277.156 380.896 277.052 381 276.844 381H269.594C269.427 381 269.344 380.938 269.344 380.812V367.562C269.344 366.021 268.802 364.688 267.719 363.562C266.635 362.438 265.302 361.875 263.719 361.875H259.5L259.438 380.688C259.438 380.896 259.354 381 259.188 381ZM265 344.125H259.5V354.188H265C266.312 354.188 267.479 353.698 268.5 352.719C269.542 351.74 270.062 350.542 270.062 349.125C270.062 347.771 269.562 346.604 268.562 345.625C267.562 344.625 266.375 344.125 265 344.125ZM293.031 381.625C290.719 381.625 288.604 381.042 286.688 379.875C284.792 378.708 283.281 377.146 282.156 375.188C281.052 373.208 280.5 371.01 280.5 368.594L280.562 348.625C280.562 346.25 281.104 344.104 282.188 342.188C283.271 340.25 284.76 338.698 286.656 337.531C288.573 336.344 290.698 335.75 293.031 335.75C295.406 335.75 297.521 336.323 299.375 337.469C301.25 338.615 302.74 340.167 303.844 342.125C304.969 344.062 305.531 346.229 305.531 348.625V351.562C305.531 351.729 305.448 351.812 305.281 351.812H298.094C297.927 351.812 297.844 351.729 297.844 351.562V348.625C297.844 347.208 297.385 345.99 296.469 344.969C295.552 343.948 294.406 343.438 293.031 343.438C291.51 343.438 290.344 343.958 289.531 345C288.719 346.042 288.312 347.25 288.312 348.625V368.594C288.312 370.156 288.771 371.438 289.688 372.438C290.604 373.417 291.719 373.906 293.031 373.906C294.406 373.906 295.552 373.365 296.469 372.281C297.385 371.177 297.844 369.948 297.844 368.594V365.625C297.844 365.458 297.927 365.375 298.094 365.375H305.344C305.51 365.375 305.594 365.458 305.594 365.625V368.594C305.594 370.99 305.031 373.177 303.906 375.156C302.76 377.115 301.25 378.688 299.375 379.875C297.5 381.042 295.385 381.625 293.031 381.625ZM331.188 381H310.5C310.333 381 310.25 380.896 310.25 380.688L310.312 336.719C310.312 336.552 310.396 336.469 310.562 336.469H331.125C331.292 336.469 331.375 336.573 331.375 336.781V343.938C331.375 344.104 331.292 344.188 331.125 344.188H318V354.188H331.125C331.292 354.188 331.375 354.271 331.375 354.438L331.438 361.688C331.438 361.854 331.354 361.938 331.188 361.938H318V373.125H331.188C331.354 373.125 331.438 373.229 331.438 373.438V380.75C331.438 380.917 331.354 381 331.188 381ZM95.0547 287H123.375C124.026 287 124.352 286.593 124.352 285.779L124.596 158.216L150.597 196.302L176.842 158.216L177.086 285.779C177.086 286.593 177.411 287 178.062 287H206.383C207.034 287 207.359 286.593 207.359 285.779L206.871 114.026C206.871 113.375 206.505 113.05 205.772 113.05H175.133C174.4 113.05 173.79 113.375 173.302 114.026L150.597 146.985L127.77 114.026C127.281 113.375 126.712 113.05 126.061 113.05H95.543C94.8919 113.05 94.5664 113.375 94.5664 114.026L94.0781 285.779C94.0781 286.593 94.4036 287 95.0547 287ZM251.793 287H280.479C281.131 287 281.456 286.674 281.456 286.023L281.212 214.002L315.025 114.026C315.188 113.375 314.944 113.05 314.293 113.05H286.217C285.566 113.05 285.159 113.375 284.996 114.026L266.197 181.287L247.765 114.026C247.602 113.375 247.114 113.05 246.3 113.05H218.468C217.817 113.05 217.573 113.375 217.735 114.026L251.183 214.979L250.938 286.023C250.938 286.674 251.223 287 251.793 287Z" fill="black"/>
</svg>
