<svg width="174" height="232" viewBox="0 0 174 232" fill="none" xmlns="http://www.w3.org/2000/svg">
<path d="M0 5.99999C0 2.68628 2.68629 0 6 0H167.469C170.783 0 173.469 2.68629 173.469 6V184.601C173.469 186.864 172.195 188.935 170.175 189.956L90.4914 230.226C88.8085 231.076 86.8238 231.086 85.1325 230.253L3.34736 189.941C1.29784 188.931 0 186.844 0 184.559V5.99999Z" fill="#343432"/>
<path d="M88.723 211.656C88.2675 211.828 87.7649 211.828 87.3094 211.656L49.5625 197.396H126.47L88.723 211.656Z" fill="white"/>
<path d="M31.9219 168.888H21.5782C21.4949 168.888 21.4532 168.836 21.4532 168.732L21.4844 146.747C21.4844 146.664 21.5261 146.622 21.6094 146.622H31.8907C31.974 146.622 32.0157 146.675 32.0157 146.779V150.357C32.0157 150.44 31.974 150.482 31.8907 150.482H25.3282V155.482H31.8907C31.974 155.482 32.0157 155.523 32.0157 155.607L32.0469 159.232C32.0469 159.315 32.0053 159.357 31.9219 159.357H25.3282V164.951H31.9219C32.0053 164.951 32.0469 165.003 32.0469 165.107V168.763C32.0469 168.846 32.0053 168.888 31.9219 168.888ZM40.7813 169.201C39.6251 169.201 38.5678 168.909 37.6094 168.326C36.6615 167.742 35.9063 166.961 35.3438 165.982C34.7917 164.992 34.5157 163.893 34.5157 162.685L34.5469 152.701C34.5469 151.513 34.8178 150.44 35.3594 149.482C35.9011 148.513 36.6459 147.737 37.5938 147.154C38.5521 146.56 39.6146 146.263 40.7813 146.263C41.9688 146.263 43.0261 146.55 43.9532 147.122C44.8907 147.695 45.6355 148.471 46.1876 149.451C46.7501 150.419 47.0313 151.503 47.0313 152.701V154.169C47.0313 154.253 46.9896 154.294 46.9063 154.294H43.3126C43.2292 154.294 43.1876 154.253 43.1876 154.169V152.701C43.1876 151.992 42.9584 151.383 42.5001 150.872C42.0417 150.362 41.4688 150.107 40.7813 150.107C40.0209 150.107 39.4376 150.367 39.0313 150.888C38.6251 151.409 38.4219 152.013 38.4219 152.701V162.685C38.4219 163.466 38.6511 164.107 39.1094 164.607C39.5678 165.096 40.1251 165.341 40.7813 165.341C41.4688 165.341 42.0417 165.07 42.5001 164.529C42.9584 163.977 43.1876 163.362 43.1876 162.685V161.201C43.1876 161.117 43.2292 161.076 43.3126 161.076H46.9376C47.0209 161.076 47.0626 161.117 47.0626 161.201V162.685C47.0626 163.883 46.7813 164.977 46.2188 165.966C45.6459 166.945 44.8907 167.732 43.9532 168.326C43.0157 168.909 41.9584 169.201 40.7813 169.201ZM55.3126 169.201C54.1771 169.201 53.1303 168.909 52.1719 168.326C51.224 167.742 50.4584 166.966 49.8751 165.997C49.3021 165.018 49.0157 163.945 49.0157 162.779L49.0469 152.638C49.0469 151.451 49.3334 150.383 49.9063 149.435C50.4688 148.477 51.2292 147.711 52.1876 147.138C53.1459 146.555 54.1876 146.263 55.3126 146.263C56.4792 146.263 57.5261 146.55 58.4532 147.122C59.3907 147.695 60.1407 148.466 60.7032 149.435C61.2761 150.393 61.5626 151.461 61.5626 152.638L61.5938 162.779C61.5938 163.945 61.3126 165.013 60.7501 165.982C60.1771 166.961 59.4167 167.742 58.4688 168.326C57.5209 168.909 56.4688 169.201 55.3126 169.201ZM55.3126 165.341C55.9584 165.341 56.5209 165.081 57.0001 164.56C57.4792 164.029 57.7188 163.435 57.7188 162.779L57.6876 152.638C57.6876 151.93 57.4636 151.331 57.0157 150.841C56.5678 150.352 56.0001 150.107 55.3126 150.107C54.6563 150.107 54.0938 150.346 53.6251 150.826C53.1563 151.305 52.9219 151.909 52.9219 152.638V162.779C52.9219 163.477 53.1563 164.081 53.6251 164.591C54.0938 165.091 54.6563 165.341 55.3126 165.341ZM67.7657 168.888H64.1407C64.0574 168.888 64.0157 168.836 64.0157 168.732L64.0782 146.747C64.0782 146.664 64.1199 146.622 64.2032 146.622H68.1094C68.1928 146.622 68.2657 146.664 68.3282 146.747L71.2501 150.966L74.1563 146.747C74.2188 146.664 74.2969 146.622 74.3907 146.622H78.3126C78.4063 146.622 78.4532 146.664 78.4532 146.747L78.5157 168.732C78.5157 168.836 78.474 168.888 78.3907 168.888H74.7657C74.6824 168.888 74.6407 168.836 74.6407 168.732L74.6094 152.404L71.2501 157.279L67.9219 152.404L67.8907 168.732C67.8907 168.836 67.849 168.888 67.7657 168.888ZM84.9532 168.888H81.3282C81.2449 168.888 81.2032 168.836 81.2032 168.732L81.2657 146.747C81.2657 146.664 81.3074 146.622 81.3907 146.622H85.2969C85.3803 146.622 85.4532 146.664 85.5157 146.747L88.4376 150.966L91.3438 146.747C91.4063 146.664 91.4844 146.622 91.5782 146.622H95.5001C95.5938 146.622 95.6407 146.664 95.6407 146.747L95.7032 168.732C95.7032 168.836 95.6615 168.888 95.5782 168.888H91.9532C91.8699 168.888 91.8282 168.836 91.8282 168.732L91.7969 152.404L88.4376 157.279L85.1094 152.404L85.0782 168.732C85.0782 168.836 85.0365 168.888 84.9532 168.888ZM108.859 168.888H98.5157C98.4324 168.888 98.3907 168.836 98.3907 168.732L98.4219 146.747C98.4219 146.664 98.4636 146.622 98.5469 146.622H108.828C108.912 146.622 108.953 146.675 108.953 146.779V150.357C108.953 150.44 108.912 150.482 108.828 150.482H102.266V155.482H108.828C108.912 155.482 108.953 155.523 108.953 155.607L108.984 159.232C108.984 159.315 108.943 159.357 108.859 159.357H102.266V164.951H108.859C108.943 164.951 108.984 165.003 108.984 165.107V168.763C108.984 168.846 108.943 168.888 108.859 168.888ZM115.578 168.888H111.953C111.87 168.888 111.828 168.836 111.828 168.732L111.891 146.747C111.891 146.664 111.932 146.622 112.016 146.622H118.484C119.641 146.622 120.703 146.904 121.672 147.466C122.641 148.029 123.412 148.784 123.984 149.732C124.568 150.68 124.859 151.753 124.859 152.951C124.859 153.732 124.74 154.44 124.5 155.076C124.26 155.711 123.979 156.247 123.656 156.685C123.344 157.122 123.057 157.445 122.797 157.654C123.953 158.935 124.531 160.44 124.531 162.169L124.563 168.732C124.563 168.836 124.51 168.888 124.406 168.888H120.781C120.698 168.888 120.656 168.857 120.656 168.794V162.169C120.656 161.398 120.385 160.732 119.844 160.169C119.302 159.607 118.635 159.326 117.844 159.326H115.734L115.703 168.732C115.703 168.836 115.662 168.888 115.578 168.888ZM118.484 150.451H115.734V155.482H118.484C119.141 155.482 119.724 155.237 120.234 154.747C120.755 154.258 121.016 153.659 121.016 152.951C121.016 152.273 120.766 151.69 120.266 151.201C119.766 150.701 119.172 150.451 118.484 150.451ZM132.5 169.201C131.344 169.201 130.287 168.909 129.328 168.326C128.38 167.742 127.625 166.961 127.063 165.982C126.51 164.992 126.234 163.893 126.234 162.685L126.266 152.701C126.266 151.513 126.537 150.44 127.078 149.482C127.62 148.513 128.365 147.737 129.313 147.154C130.271 146.56 131.333 146.263 132.5 146.263C133.688 146.263 134.745 146.55 135.672 147.122C136.609 147.695 137.354 148.471 137.906 149.451C138.469 150.419 138.75 151.503 138.75 152.701V154.169C138.75 154.253 138.708 154.294 138.625 154.294H135.031C134.948 154.294 134.906 154.253 134.906 154.169V152.701C134.906 151.992 134.677 151.383 134.219 150.872C133.76 150.362 133.188 150.107 132.5 150.107C131.74 150.107 131.156 150.367 130.75 150.888C130.344 151.409 130.141 152.013 130.141 152.701V162.685C130.141 163.466 130.37 164.107 130.828 164.607C131.287 165.096 131.844 165.341 132.5 165.341C133.188 165.341 133.76 165.07 134.219 164.529C134.677 163.977 134.906 163.362 134.906 162.685V161.201C134.906 161.117 134.948 161.076 135.031 161.076H138.656C138.74 161.076 138.781 161.117 138.781 161.201V162.685C138.781 163.883 138.5 164.977 137.938 165.966C137.365 166.945 136.609 167.732 135.672 168.326C134.734 168.909 133.677 169.201 132.5 169.201ZM151.578 168.888H141.234C141.151 168.888 141.109 168.836 141.109 168.732L141.141 146.747C141.141 146.664 141.182 146.622 141.266 146.622H151.547C151.63 146.622 151.672 146.675 151.672 146.779V150.357C151.672 150.44 151.63 150.482 151.547 150.482H144.984V155.482H151.547C151.63 155.482 151.672 155.523 151.672 155.607L151.703 159.232C151.703 159.315 151.662 159.357 151.578 159.357H144.984V164.951H151.578C151.662 164.951 151.703 165.003 151.703 165.107V168.763C151.703 168.846 151.662 168.888 151.578 168.888Z" fill="white"/>
<path d="M52.3594 118.472H39.8985C39.612 118.472 39.4688 118.293 39.4688 117.935L39.6837 42.3636C39.6837 42.0772 39.8269 41.934 40.1133 41.934H53.5411C53.8275 41.934 54.0782 42.0772 54.293 42.3636L64.337 56.8656L74.3272 42.3636C74.5421 42.0772 74.8106 41.934 75.1329 41.934H88.6143C88.9366 41.934 89.0977 42.0772 89.0977 42.3636L89.3126 117.935C89.3126 118.293 89.1693 118.472 88.8829 118.472H76.4219C76.1355 118.472 75.9922 118.293 75.9922 117.935L75.8848 61.807L64.337 78.5648L52.8965 61.807L52.7891 117.935C52.7891 118.293 52.6459 118.472 52.3594 118.472ZM121.485 118.472H108.863C108.613 118.472 108.487 118.329 108.487 118.042L108.595 86.7826L93.878 42.3636C93.8064 42.0772 93.9138 41.934 94.2003 41.934H106.446C106.804 41.934 107.019 42.0772 107.091 42.3636L115.201 71.9584L123.473 42.3636C123.544 42.0772 123.723 41.934 124.01 41.934H136.363C136.65 41.934 136.757 42.0772 136.686 42.3636L121.808 86.3529L121.915 118.042C121.915 118.329 121.772 118.472 121.485 118.472Z" fill="white"/>
</svg>
